# xmcd
#
# Track frame offsets:
#	182
#	12902
#	28347
#	39082
#	53895
#	67790
#	78775
#	93625
#	108920
#	124472
#
# Disc length: 1823 seconds
#
# Revision: 1
# Processed by: cddbd v1.5.2PL0 Copyright (c) Steve Scherf et al.
# Submitted via: EasyCDDAExtractor 16.0.6.1
#
DISCID=77071d0a
DTITLE=Sammy Davis Jr. - C-016 The Country Side Of
DYEAR=1989
DGENRE=Country
TTITLE0=What I´ve Got In Mind
TTITLE1=Come Sundown
TTITLE2=Mention A Mansion
TTITLE3=You´re Gonna Love Youself (In The Morning)
TTITLE4=Smoke, Smoke, Smoke (That Cigarette)
TTITLE5=Oh Lonesome Me
TTITLE6=We Could Have Been Closest Of Friends
TTITLE7=Hey Won´t You Play (Another Somebody Done Somebody Wrong Song)
TTITLE8=Please Don´t Tell Me How Thw Story Ends
TTITLE9=The River´s Too Wide
EXTD=
EXTT0=
EXTT1=
EXTT2=
EXTT3=
EXTT4=
EXTT5=
EXTT6=
EXTT7=
EXTT8=
EXTT9=
PLAYORDER=
